<?xml version="1.0" encoding="UTF-8" standalone="no"?>
<svg
   xmlns:dc="http://purl.org/dc/elements/1.1/"
   xmlns:cc="http://creativecommons.org/ns#"
   xmlns:rdf="http://www.w3.org/1999/02/22-rdf-syntax-ns#"
   xmlns:svg="http://www.w3.org/2000/svg"
   xmlns="http://www.w3.org/2000/svg"
   xmlns:sodipodi="http://sodipodi.sourceforge.net/DTD/sodipodi-0.dtd"
   xmlns:inkscape="http://www.inkscape.org/namespaces/inkscape"
   inkscape:version="1.0rc1 (09960d6, 2020-04-09)"
   sodipodi:docname="biovenn_orthogroups.svg"
   viewBox="0 0 960 960"
   height="960"
   width="960"
   xml:space="preserve"
   id="svg833"
   version="1.1"><metadata
     id="metadata839"><rdf:RDF><cc:Work
         rdf:about=""><dc:format>image/svg+xml</dc:format><dc:type
           rdf:resource="http://purl.org/dc/dcmitype/StillImage" /><dc:title></dc:title></cc:Work></rdf:RDF></metadata><defs
     id="defs837"><clipPath
       id="clipPath851"
       clipPathUnits="userSpaceOnUse"><path
         inkscape:connector-curvature="0"
         id="path849"
         d="M 97.2,90 H 640.8 V 633.6 H 97.2 Z" /></clipPath><clipPath
       id="clipPath861"
       clipPathUnits="userSpaceOnUse"><path
         inkscape:connector-curvature="0"
         id="path859"
         d="M 97.2,90 H 640.8 V 633.6 H 97.2 Z" /></clipPath><clipPath
       id="clipPath871"
       clipPathUnits="userSpaceOnUse"><path
         inkscape:connector-curvature="0"
         id="path869"
         d="M 97.2,90 H 640.8 V 633.6 H 97.2 Z" /></clipPath></defs><sodipodi:namedview
     inkscape:current-layer="g875"
     inkscape:window-maximized="0"
     inkscape:window-y="26"
     inkscape:window-x="1366"
     inkscape:cy="464.59611"
     inkscape:cx="512.07656"
     inkscape:zoom="0.42395833"
     showgrid="false"
     id="namedview835"
     inkscape:window-height="874"
     inkscape:window-width="1440"
     inkscape:pageshadow="2"
     inkscape:pageopacity="0"
     guidetolerance="10"
     gridtolerance="10"
     objecttolerance="10"
     borderopacity="1"
     bordercolor="#666666"
     pagecolor="#ffffff" /><g
     transform="matrix(1.3333333,0,0,-1.3333333,0,960)"
     inkscape:label="biovenn_orthogroups"
     inkscape:groupmode="layer"
     id="g841"><path
       sodipodi:insensitive="true"
       transform="translate(114.1032,173.3661)"
       inkscape:connector-curvature="0"
       id="path843"
       style="fill:#ffffff;fill-opacity:1;fill-rule:nonzero;stroke:none"
       d="M 0,0 H 720 V 720 H 0 Z" /><g
       id="g845"><path
         d="m 441.56388,633.6 c 52.83803,0 103.51908,-20.99278 140.88121,-58.35491 C 619.80722,537.88296 640.8,487.20191 640.8,434.36388 c 0,-52.83804 -20.99278,-103.51908 -58.35491,-140.88122 -37.36213,-37.36213 -88.04318,-58.3549 -140.88121,-58.3549 -52.83804,0 -103.51908,20.99277 -140.88121,58.3549 -37.36214,37.36214 -58.35491,88.04318 -58.35491,140.88122 0,52.83803 20.99277,103.51908 58.35491,140.88121 C 338.0448,612.60722 388.72584,633.6 441.56388,633.6 Z"
         style="fill:#ff0000;fill-opacity:0.5;fill-rule:nonzero;stroke:#ff0000;stroke-width:1;stroke-linecap:butt;stroke-linejoin:miter;stroke-miterlimit:10;stroke-dasharray:none;stroke-opacity:0.5"
         id="path853"
         inkscape:connector-curvature="0"
         transform="matrix(1.128425,0,0,1.0619983,-58.749599,-19.275016)" /></g><g
       transform="translate(19.769042,-5.1523345)"
       id="g855"><g
         clip-path="url(#clipPath861)"
         id="g857"><path
           inkscape:connector-curvature="0"
           id="path863"
           style="fill:#008000;fill-opacity:0.5;fill-rule:nonzero;stroke:#008000;stroke-width:1;stroke-linecap:butt;stroke-linejoin:miter;stroke-miterlimit:10;stroke-dasharray:none;stroke-opacity:0.5"
           d="m 321.2215,557.12433 c 59.4112,0 116.39706,-23.60432 158.40712,-65.61438 42.01006,-42.01006 65.61438,-98.99593 65.61438,-158.40712 0,-59.4112 -23.60432,-116.39707 -65.61438,-158.40713 -42.01006,-42.01006 -98.99592,-65.61437 -158.40712,-65.61437 -59.4112,0 -116.39706,23.60431 -158.40712,65.61437 C 120.80432,216.70576 97.2,273.69163 97.2,333.10283 c 0,59.41119 23.60432,116.39706 65.61438,158.40712 42.01006,42.01006 98.99592,65.61438 158.40712,65.61438 z" /></g></g><g
       transform="matrix(0.7637151,0.71816315,-0.68335361,0.8026182,366.96085,-219.07032)"
       id="g865"><g
         clip-path="url(#clipPath871)"
         id="g867"><path
           transform="matrix(0.97731995,0,0,1.1920217,-28.559611,-56.839309)"
           inkscape:connector-curvature="0"
           id="path873"
           style="fill:#0000ff;fill-opacity:0.5;fill-rule:nonzero;stroke:#0000ff;stroke-width:1;stroke-linecap:butt;stroke-linejoin:miter;stroke-miterlimit:10;stroke-dasharray:none;stroke-opacity:0.5"
           d="m 442.5275,472.66193 c 37.01151,0 72.5121,-14.70482 98.68319,-40.87591 26.17109,-26.17109 40.87592,-61.67168 40.87592,-98.68319 0,-37.01151 -14.70483,-72.5121 -40.87592,-98.68319 -26.17109,-26.17109 -61.67168,-40.87592 -98.68319,-40.87592 -37.01151,0 -72.5121,14.70483 -98.68319,40.87592 -26.17109,26.17109 -40.87592,61.67168 -40.87592,98.68319 0,37.01151 14.70483,72.5121 40.87592,98.68319 26.17109,26.17109 61.67168,40.87591 98.68319,40.87591 z" /></g></g><g
       inkscape:groupmode="layer"
       style="display:inline"
       id="g875"><text
         id="text883"
         style="font-variant:normal;font-weight:bold;font-size:16px;font-family:DejaVuSerif;-inkscape-font-specification:DejaVuSerif-Bold;writing-mode:lr-tb;fill:#000000;fill-opacity:1;fill-rule:nonzero;stroke:none"
         transform="matrix(1,0,0,-1,506.44591,532.87482)"><tspan
           id="tspan881"
           sodipodi:role="line"
           y="0"
           x="0 6.96 13.92">929</tspan></text><text
         id="text887"
         style="font-variant:normal;font-weight:bold;font-size:16px;font-family:DejaVuSerif;-inkscape-font-specification:DejaVuSerif-Bold;writing-mode:lr-tb;fill:#000000;fill-opacity:1;fill-rule:nonzero;stroke:none"
         transform="matrix(1,0,0,-1,197.35152,267.64801)"><tspan
           id="tspan885"
           sodipodi:role="line"
           y="0"
           x="0 6.96 13.92 20.879999">1519</tspan></text><text
         id="text891"
         style="font-variant:normal;font-weight:bold;font-size:16px;font-family:DejaVuSerif;-inkscape-font-specification:DejaVuSerif-Bold;writing-mode:lr-tb;fill:#000000;fill-opacity:1;fill-rule:nonzero;stroke:none"
         transform="matrix(1,0,0,-1,547.40191,237.20715)"><tspan
           id="tspan889"
           sodipodi:role="line"
           y="0"
           x="0 6.96 13.92">126</tspan></text><text
         id="text895"
         style="font-variant:normal;font-weight:bold;font-size:16px;font-family:DejaVuSerif;-inkscape-font-specification:DejaVuSerif-Bold;writing-mode:lr-tb;fill:#000000;fill-opacity:1;fill-rule:nonzero;stroke:none"
         transform="matrix(1,0,0,-1,311.93998,497.87777)"><tspan
           id="tspan893"
           sodipodi:role="line"
           y="0"
           x="0 6.96 13.92">426</tspan></text><text
         id="text899"
         style="font-variant:normal;font-weight:bold;font-size:16px;font-family:DejaVuSerif;-inkscape-font-specification:DejaVuSerif-Bold;writing-mode:lr-tb;fill:#000000;fill-opacity:1;fill-rule:nonzero;stroke:none"
         transform="matrix(1,0,0,-1,573.9785,343.8959)"><tspan
           id="tspan897"
           y="0"
           x="0">1</tspan></text><text
         id="text903"
         style="font-variant:normal;font-weight:bold;font-size:16px;font-family:DejaVuSerif;-inkscape-font-specification:DejaVuSerif-Bold;writing-mode:lr-tb;fill:#000000;fill-opacity:1;fill-rule:nonzero;stroke:none"
         transform="matrix(1,0,0,-1,457.96007,209.77976)"><tspan
           id="tspan901"
           sodipodi:role="line"
           y="0"
           x="0 6.96">32</tspan></text><text
         id="text907"
         style="font-variant:normal;font-weight:bold;font-size:16px;font-family:DejaVuSerif;-inkscape-font-specification:DejaVuSerif-Bold;writing-mode:lr-tb;fill:#000000;fill-opacity:1;fill-rule:nonzero;stroke:none"
         transform="matrix(1,0,0,-1,428.46376,368.08434)"><tspan
           id="tspan905"
           sodipodi:role="line"
           y="0"
           x="0 6.96 13.92">994</tspan></text><text
         transform="matrix(0.75000002,0,0,-0.75000002,0,720.00002)"
         id="text923"
         y="97.886978"
         x="724.12775"
         style="font-size:26.6667px;line-height:1.25;font-family:Arial;-inkscape-font-specification:Arial;text-align:center;letter-spacing:-1px;word-spacing:0px;text-anchor:middle"
         xml:space="preserve"><tspan
           y="97.886978"
           x="723.62775"
           id="tspan921"
           sodipodi:role="line">Free-living</tspan></text><text
         transform="matrix(0.75000002,0,0,-0.75000002,48.432688,706.55747)"
         id="text927"
         y="662.80096"
         x="770.12286"
         style="font-size:26.6667px;line-height:1.25;font-family:Arial;-inkscape-font-specification:Arial;text-align:center;letter-spacing:-1px;word-spacing:0px;text-anchor:middle"
         xml:space="preserve"><tspan
           y="662.80096"
           x="769.62286"
           id="tspan925"
           sodipodi:role="line">Clade I</tspan></text><text
         transform="matrix(0.75000002,0,0,-0.75000002,53.955775,702.3096)"
         id="text931"
         y="224.07861"
         x="113.21867"
         style="font-size:26.6667px;line-height:1.25;font-family:Arial;-inkscape-font-specification:Arial;text-align:center;letter-spacing:-1px;word-spacing:0px;text-anchor:middle"
         xml:space="preserve"><tspan
           y="224.07861"
           x="112.71867"
           id="tspan929"
           sodipodi:role="line">Clade II</tspan></text></g></g></svg>
