<?xml version="1.0" encoding="utf-8" standalone="no"?>
<!DOCTYPE svg PUBLIC "-//W3C//DTD SVG 1.1//EN"
  "http://www.w3.org/Graphics/SVG/1.1/DTD/svg11.dtd">
<!-- Created with matplotlib (https://matplotlib.org/) -->
<svg height="1000px" version="1.1" viewBox="0 0 1000 1000" width="1000px" xmlns="http://www.w3.org/2000/svg" xmlns:xlink="http://www.w3.org/1999/xlink">
 <metadata>
  <rdf:RDF xmlns:cc="http://creativecommons.org/ns#" xmlns:dc="http://purl.org/dc/elements/1.1/" xmlns:rdf="http://www.w3.org/1999/02/22-rdf-syntax-ns#">
   <cc:Work>
    <dc:type rdf:resource="http://purl.org/dc/dcmitype/StillImage"/>
    <dc:date>2021-07-17T16:17:35.013003</dc:date>
    <dc:format>image/svg+xml</dc:format>
    <dc:creator>
     <cc:Agent>
      <dc:title>Matplotlib v3.3.4, https://matplotlib.org/</dc:title>
     </cc:Agent>
    </dc:creator>
   </cc:Work>
  </rdf:RDF>
 </metadata>
 <defs>
  <style type="text/css">*{stroke-linecap:butt;stroke-linejoin:round;}</style>
 </defs>
<script>
<![CDATA[
var Root=document.documentElement
standardize(Root)
function standardize(R){
  var Attr={
    'onmouseup':'add(evt)',
    'onmousedown':'grab(evt)',
    'onmousemove':null
  }
  assignAttr(R,Attr)
}
function grab(evt){
  var O=evt.target
  var Attr={
    'onmousemove':'slide(evt,"'+O.id+'")',
    'onmouseup':'standardize(Root)'
  }
  assignAttr(Root,Attr)
}
function slide(evt,id){
  if(id)
  {
    if(id.substr(0,2)=='g_'){
      var o=document.getElementById(id)
    }
    else if(document.getElementById(id).parentNode.id.substr(0,2)=='g_')
    {
      var o=document.getElementById(id).parentNode
    }
    else if(document.getElementById(id).parentNode.parentNode.id.substr(0,2)=='g_')
    {
      var o=document.getElementById(id).parentNode.parentNode
    }
    else if(document.getElementById(id).parentNode.parentNode.parentNode.id.substr(0,2)=='g_')
    {
      var o=document.getElementById(id).parentNode.parentNode.parentNode
    }
    if(o.transform.baseVal.getItem(0).type==SVGTransform.SVG_TRANSFORM_TRANSLATE)
    {
      var oldX=o.transform.baseVal.getItem(0).matrix.e,oldY=o.transform.baseVal.getItem(0).matrix.f;
    }
    o.transform.baseVal.getItem(0).setTranslate(evt.clientX,evt.clientY);
  }
}
function assignAttr(O,A){
  for (i in A) O.setAttributeNS(null,i, A[i])
}
]]>
</script>
 <g id="figure_1">
  <g id="patch_1">
   <path d="M 0 720 
L 720 720 
L 720 0 
L 0 0 
z
" style="fill:#ffffff;"/>
  </g>
  <g id="axes_1">
   <g id="patch_2">
    <path clip-path="url(#p855647fb9b)" d="M 441.563878 86.4 
C 494.401915 86.4 545.082957 107.392775 582.445091 144.754909 
C 619.807225 182.117043 640.8 232.798085 640.8 285.636122 
C 640.8 338.474159 619.807225 389.1552 582.445091 426.517335 
C 545.082957 463.879469 494.401915 484.872244 441.563878 484.872244 
C 388.725841 484.872244 338.0448 463.879469 300.682665 426.517335 
C 263.320531 389.1552 242.327756 338.474159 242.327756 285.636122 
C 242.327756 232.798085 263.320531 182.117043 300.682665 144.754909 
C 338.0448 107.392775 388.725841 86.4 441.563878 86.4 
z
" style="fill:#ff0000;opacity:0.5;stroke:#ff0000;stroke-linejoin:miter;"/>
   </g>
   <g id="patch_3">
    <path clip-path="url(#p855647fb9b)" d="M 321.221502 162.87567 
C 380.632699 162.87567 437.618565 186.479989 479.628625 228.490049 
C 521.638685 270.500109 545.243004 327.485975 545.243004 386.897172 
C 545.243004 446.308369 521.638685 503.294235 479.628625 545.304295 
C 437.618565 587.314355 380.632699 610.918674 321.221502 610.918674 
C 261.810305 610.918674 204.824439 587.314355 162.814379 545.304295 
C 120.804319 503.294235 97.2 446.308369 97.2 386.897172 
C 97.2 327.485975 120.804319 270.500109 162.814379 228.490049 
C 204.824439 186.479989 261.810305 162.87567 321.221502 162.87567 
z
" style="fill:#008000;opacity:0.5;stroke:#008000;stroke-linejoin:miter;"/>
   </g>
   <g id="patch_4">
    <path clip-path="url(#p855647fb9b)" d="M 442.527501 247.338065 
C 479.539009 247.338065 515.039604 262.042893 541.210692 288.213981 
C 567.38178 314.385069 582.086608 349.885664 582.086608 386.897172 
C 582.086608 423.908679 567.38178 459.409274 541.210692 485.580362 
C 515.039604 511.751451 479.539009 526.456278 442.527501 526.456278 
C 405.515994 526.456278 370.015399 511.751451 343.844311 485.580362 
C 317.673222 459.409274 302.968395 423.908679 302.968395 386.897172 
C 302.968395 349.885664 317.673222 314.385069 343.844311 288.213981 
C 370.015399 262.042893 405.515994 247.338065 442.527501 247.338065 
z
" style="fill:#0000ff;opacity:0.5;stroke:#0000ff;stroke-linejoin:miter;"/>
   </g>
  </g>
  <g id="text_1">
   <!-- BioVenn -->
   <g id='g_1' style='cursor:move' transform="translate(313.329687 19.91875)scale(0.2 -0.2)">
    <defs>
     <path d="M 4.6875 0 
L 4.6875 5.90625 
L 14.015625 5.90625 
L 14.015625 67 
L 4.6875 67 
L 4.6875 72.90625 
L 47.90625 72.90625 
Q 61.234375 72.90625 67.921875 68.40625 
Q 74.609375 63.921875 74.609375 54.890625 
Q 74.609375 48.390625 69.984375 44.578125 
Q 65.375 40.765625 56.296875 39.796875 
Q 67.28125 38.765625 73.140625 33.9375 
Q 79 29.109375 79 21.09375 
Q 79 10.25 70.8125 5.125 
Q 62.640625 0 45.21875 0 
z
M 32.8125 42.484375 
L 39.203125 42.484375 
Q 47.609375 42.484375 51.65625 45.53125 
Q 55.71875 48.578125 55.71875 54.890625 
Q 55.71875 61.234375 51.78125 64.109375 
Q 47.859375 67 39.203125 67 
L 32.8125 67 
z
M 32.8125 5.90625 
L 39.796875 5.90625 
Q 49.125 5.90625 53.609375 9.609375 
Q 58.109375 13.328125 58.109375 21.09375 
Q 58.109375 28.90625 53.5625 32.765625 
Q 49.03125 36.625 39.796875 36.625 
L 32.8125 36.625 
z
" id="DejaVuSerif-Bold-66"/>
     <path d="M 9.1875 66.609375 
Q 9.1875 70.5625 11.921875 73.265625 
Q 14.65625 75.984375 18.609375 75.984375 
Q 22.46875 75.984375 25.171875 73.265625 
Q 27.875 70.5625 27.875 66.609375 
Q 27.875 62.75 25.171875 60.03125 
Q 22.46875 57.328125 18.609375 57.328125 
Q 14.65625 57.328125 11.921875 60.015625 
Q 9.1875 62.703125 9.1875 66.609375 
z
M 28.078125 5.90625 
L 35.5 5.90625 
L 35.5 0 
L 3.421875 0 
L 3.421875 5.90625 
L 10.796875 5.90625 
L 10.796875 46 
L 3.421875 46 
L 3.421875 51.90625 
L 28.078125 51.90625 
z
" id="DejaVuSerif-Bold-105"/>
     <path d="M 33.40625 4.109375 
Q 38.875 4.109375 41.09375 8.796875 
Q 43.3125 13.484375 43.3125 25.984375 
Q 43.3125 38.484375 41.109375 43.140625 
Q 38.921875 47.796875 33.40625 47.796875 
Q 27.875 47.796875 25.625 43.078125 
Q 23.390625 38.375 23.390625 25.984375 
Q 23.390625 13.578125 25.625 8.84375 
Q 27.875 4.109375 33.40625 4.109375 
z
M 33.40625 -1.421875 
Q 19.671875 -1.421875 11.890625 5.875 
Q 4.109375 13.1875 4.109375 25.984375 
Q 4.109375 38.8125 11.890625 46.0625 
Q 19.671875 53.328125 33.40625 53.328125 
Q 47.171875 53.328125 54.9375 46.0625 
Q 62.703125 38.8125 62.703125 25.984375 
Q 62.703125 13.1875 54.90625 5.875 
Q 47.125 -1.421875 33.40625 -1.421875 
z
" id="DejaVuSerif-Bold-111"/>
     <path d="M 79 72.90625 
L 79 67 
L 72.90625 67 
L 45.40625 0 
L 33.796875 0 
L 6.296875 67 
L -0.59375 67 
L -0.59375 72.90625 
L 33.59375 72.90625 
L 33.59375 67 
L 26.515625 67 
L 46.1875 18.703125 
L 66.015625 67 
L 57.328125 67 
L 57.328125 72.90625 
z
" id="DejaVuSerif-Bold-86"/>
     <path d="M 40.09375 29.296875 
Q 40.09375 39.546875 38.1875 43.671875 
Q 36.28125 47.796875 31.6875 47.796875 
Q 27.25 47.796875 25.3125 43.75 
Q 23.390625 39.703125 23.390625 30.171875 
L 23.390625 29.296875 
z
M 59.078125 23.484375 
L 23.390625 23.484375 
L 23.390625 23.09375 
Q 23.390625 13.03125 26.40625 8.5625 
Q 29.4375 4.109375 36.1875 4.109375 
Q 41.796875 4.109375 45.265625 7.078125 
Q 48.734375 10.0625 49.703125 15.71875 
L 57.8125 15.71875 
Q 55.71875 6.890625 49.46875 2.734375 
Q 43.21875 -1.421875 31.984375 -1.421875 
Q 18.5 -1.421875 11.296875 5.6875 
Q 4.109375 12.796875 4.109375 25.984375 
Q 4.109375 38.875 11.46875 46.09375 
Q 18.84375 53.328125 31.984375 53.328125 
Q 44.875 53.328125 51.75 45.734375 
Q 58.640625 38.140625 59.078125 23.484375 
z
" id="DejaVuSerif-Bold-101"/>
     <path d="M 3.421875 0 
L 3.421875 5.90625 
L 10.796875 5.90625 
L 10.796875 46 
L 3.421875 46 
L 3.421875 51.90625 
L 28.078125 51.90625 
L 28.078125 44.578125 
Q 31.203125 49.21875 35.203125 51.265625 
Q 39.203125 53.328125 45.3125 53.328125 
Q 54.046875 53.328125 58.515625 48.171875 
Q 62.984375 43.015625 62.984375 33.015625 
L 62.984375 5.90625 
L 70.40625 5.90625 
L 70.40625 0 
L 39.40625 0 
L 39.40625 5.90625 
L 45.703125 5.90625 
L 45.703125 33.5 
Q 45.703125 40.09375 44.015625 42.65625 
Q 42.328125 45.21875 38.1875 45.21875 
Q 32.953125 45.21875 30.515625 41.375 
Q 28.078125 37.546875 28.078125 29.203125 
L 28.078125 5.90625 
L 34.421875 5.90625 
L 34.421875 0 
z
" id="DejaVuSerif-Bold-110"/>
    </defs>
    <use id='use_2' xlink:href="#DejaVuSerif-Bold-66"/>
    <use id='use_3' x="84.521484" xlink:href="#DejaVuSerif-Bold-105"/>
    <use id='use_4' x="122.509766" xlink:href="#DejaVuSerif-Bold-111"/>
    <use id='use_5' x="189.208984" xlink:href="#DejaVuSerif-Bold-86"/>
    <use id='use_6' x="257.671875" xlink:href="#DejaVuSerif-Bold-101"/>
    <use id='use_7' x="321.294922" xlink:href="#DejaVuSerif-Bold-110"/>
    <use id='use_8' x="394" xlink:href="#DejaVuSerif-Bold-110"/>
   </g>
  </g>
  <g id="text_2">
   <!-- 929 -->
   <g id='g_9' style='cursor:move' transform="translate(506.438875 187.12674)scale(0.1 -0.1)">
    <defs>
     <path d="M 34.078125 68.5 
Q 29.046875 68.5 26.921875 64.234375 
Q 24.8125 59.96875 24.8125 49.421875 
Q 24.8125 38.875 26.921875 34.59375 
Q 29.046875 30.328125 34.078125 30.328125 
Q 39.109375 30.328125 41.25 34.59375 
Q 43.40625 38.875 43.40625 49.421875 
Q 43.40625 59.96875 41.25 64.234375 
Q 39.109375 68.5 34.078125 68.5 
z
M 44.96875 29.6875 
Q 41.75 27.09375 37.8125 25.796875 
Q 33.890625 24.515625 29.296875 24.515625 
Q 18.171875 24.515625 11.796875 31.03125 
Q 5.421875 37.546875 5.421875 49.03125 
Q 5.421875 61.140625 12.546875 67.671875 
Q 19.671875 74.21875 32.90625 74.21875 
Q 47.859375 74.21875 55.5625 65.1875 
Q 63.28125 56.15625 63.28125 38.71875 
Q 63.28125 18.84375 54.734375 8.703125 
Q 46.1875 -1.421875 29.390625 -1.421875 
Q 25 -1.421875 19.96875 -0.6875 
Q 14.9375 0.046875 9.1875 1.515625 
L 9.1875 14.40625 
L 15.09375 14.40625 
Q 16.3125 9.421875 19.703125 6.859375 
Q 23.09375 4.296875 28.515625 4.296875 
Q 37.109375 4.296875 41.015625 10.28125 
Q 44.921875 16.265625 44.96875 29.6875 
z
" id="DejaVuSerif-Bold-57"/>
     <path d="M 13.1875 54.890625 
L 7.328125 54.890625 
L 7.328125 70.609375 
Q 13.28125 72.40625 19.109375 73.3125 
Q 24.953125 74.21875 30.90625 74.21875 
Q 44.828125 74.21875 52.609375 68.53125 
Q 60.40625 62.84375 60.40625 52.6875 
Q 60.40625 45.453125 56.109375 39.71875 
Q 51.8125 33.984375 39.703125 26.125 
L 19.390625 12.796875 
L 53.90625 12.796875 
L 53.90625 21.390625 
L 60.59375 21.390625 
L 60.59375 0 
L 6.6875 0 
L 6.6875 11.921875 
L 17.484375 19.390625 
Q 31.296875 28.90625 35.890625 35.59375 
Q 40.484375 42.28125 40.484375 51.21875 
Q 40.484375 59.671875 36.984375 64.078125 
Q 33.5 68.5 26.8125 68.5 
Q 21.046875 68.5 17.578125 65.015625 
Q 14.109375 61.53125 13.1875 54.890625 
z
" id="DejaVuSerif-Bold-50"/>
    </defs>
    <use id='use_10' xlink:href="#DejaVuSerif-Bold-57"/>
    <use id='use_11' x="69.580078" xlink:href="#DejaVuSerif-Bold-50"/>
    <use id='use_12' x="139.160156" xlink:href="#DejaVuSerif-Bold-57"/>
   </g>
  </g>
  <g id="text_3">
   <!-- 1519 -->
   <g id='g_13' style='cursor:move' transform="translate(197.342147 452.353554)scale(0.1 -0.1)">
    <defs>
     <path d="M 13.71875 0 
L 13.71875 5.90625 
L 27.390625 5.90625 
L 27.390625 64.890625 
L 12.203125 55.90625 
L 12.203125 63.1875 
L 30.515625 74.21875 
L 45.90625 74.21875 
L 45.90625 5.90625 
L 59.625 5.90625 
L 59.625 0 
z
" id="DejaVuSerif-Bold-49"/>
     <path d="M 56.390625 72.90625 
L 56.390625 60.109375 
L 17.390625 60.109375 
L 17.390625 44.09375 
Q 20.609375 46.578125 24.5625 47.84375 
Q 28.515625 49.125 32.90625 49.125 
Q 46.390625 49.125 54.203125 42.3125 
Q 62.015625 35.5 62.015625 23.78125 
Q 62.015625 11.859375 54.203125 5.21875 
Q 46.390625 -1.421875 32.328125 -1.421875 
Q 26.375 -1.421875 20.484375 -0.4375 
Q 14.59375 0.53125 8.203125 2.59375 
L 8.203125 18.5 
L 14.0625 18.5 
Q 14.359375 11.328125 17.796875 7.8125 
Q 21.234375 4.296875 27.984375 4.296875 
Q 35.15625 4.296875 38.625 9.109375 
Q 42.09375 13.921875 42.09375 23.78125 
Q 42.09375 33.5 38.6875 38.296875 
Q 35.296875 43.109375 28.421875 43.109375 
Q 24.703125 43.109375 21.796875 41.578125 
Q 18.890625 40.046875 16.40625 36.8125 
L 11.53125 36.8125 
L 11.53125 72.90625 
z
" id="DejaVuSerif-Bold-53"/>
    </defs>
    <use id='use_14' xlink:href="#DejaVuSerif-Bold-49"/>
    <use id='use_15' x="69.580078" xlink:href="#DejaVuSerif-Bold-53"/>
    <use id='use_16' x="139.160156" xlink:href="#DejaVuSerif-Bold-49"/>
    <use id='use_17' x="208.740234" xlink:href="#DejaVuSerif-Bold-57"/>
   </g>
  </g>
  <g id="text_4">
   <!-- 126 -->
   <g id='g_18' style='cursor:move' transform="translate(527.894883 475.294414)scale(0.1 -0.1)">
    <defs>
     <path d="M 24.609375 43.21875 
Q 27.78125 45.75 31.703125 47.015625 
Q 35.640625 48.296875 40.28125 48.296875 
Q 51.46875 48.296875 57.828125 41.75 
Q 64.203125 35.203125 64.203125 23.78125 
Q 64.203125 11.71875 57.03125 5.140625 
Q 49.859375 -1.421875 36.625 -1.421875 
Q 21.6875 -1.421875 13.984375 7.59375 
Q 6.296875 16.609375 6.296875 34.078125 
Q 6.296875 53.953125 14.84375 64.078125 
Q 23.390625 74.21875 40.1875 74.21875 
Q 44.578125 74.21875 49.609375 73.484375 
Q 54.640625 72.75 60.40625 71.296875 
L 60.40625 58.40625 
L 54.5 58.40625 
Q 53.265625 63.375 49.875 65.9375 
Q 46.484375 68.5 41.109375 68.5 
Q 32.421875 68.5 28.53125 62.546875 
Q 24.65625 56.59375 24.609375 43.21875 
z
M 35.5 4.296875 
Q 40.53125 4.296875 42.671875 8.5625 
Q 44.828125 12.84375 44.828125 23.390625 
Q 44.828125 33.9375 42.671875 38.203125 
Q 40.53125 42.484375 35.5 42.484375 
Q 30.46875 42.484375 28.34375 38.203125 
Q 26.21875 33.9375 26.21875 23.390625 
Q 26.21875 12.84375 28.34375 8.5625 
Q 30.46875 4.296875 35.5 4.296875 
z
" id="DejaVuSerif-Bold-54"/>
    </defs>
    <use id='use_19' xlink:href="#DejaVuSerif-Bold-49"/>
    <use id='use_20' x="69.580078" xlink:href="#DejaVuSerif-Bold-50"/>
    <use id='use_21' x="139.160156" xlink:href="#DejaVuSerif-Bold-54"/>
   </g>
  </g>
  <g id="text_5">
   <!-- 426 -->
   <g id='g_22' style='cursor:move' transform="translate(311.932952 222.123793)scale(0.1 -0.1)">
    <defs>
     <path d="M 63.8125 0 
L 23.6875 0 
L 23.6875 5.90625 
L 34.515625 5.90625 
L 34.515625 19.1875 
L 4.109375 19.1875 
L 4.109375 24.8125 
L 34.625 74.21875 
L 52.984375 74.21875 
L 52.984375 25.484375 
L 65.484375 25.484375 
L 65.484375 19.1875 
L 52.984375 19.1875 
L 52.984375 5.90625 
L 63.8125 5.90625 
z
M 34.515625 25.484375 
L 34.515625 60.890625 
L 12.796875 25.484375 
z
" id="DejaVuSerif-Bold-52"/>
    </defs>
    <use id='use_23' xlink:href="#DejaVuSerif-Bold-52"/>
    <use id='use_24' x="69.580078" xlink:href="#DejaVuSerif-Bold-50"/>
    <use id='use_25' x="139.160156" xlink:href="#DejaVuSerif-Bold-54"/>
   </g>
  </g>
  <g id="text_6">
   <!-- 1 -->
   <g id='g_26' style='cursor:move' transform="translate(554.476154 353.605663)scale(0.1 -0.1)">
    <use id='use_27' xlink:href="#DejaVuSerif-Bold-49"/>
   </g>
  </g>
  <g id="text_7">
   <!-- 32 -->
   <g id='g_28' style='cursor:move' transform="translate(493.955387 496.721805)scale(0.1 -0.1)">
    <defs>
     <path d="M 8.59375 70.796875 
Q 15.046875 72.515625 21.09375 73.359375 
Q 27.15625 74.21875 32.90625 74.21875 
Q 46.09375 74.21875 53.140625 69.5 
Q 60.203125 64.796875 60.203125 56 
Q 60.203125 49.421875 56.140625 45.3125 
Q 52.09375 41.21875 44.28125 39.796875 
Q 53.8125 38.28125 58.5 33.296875 
Q 63.1875 28.328125 63.1875 19.671875 
Q 63.1875 9.46875 55.09375 4.015625 
Q 47.015625 -1.421875 31.6875 -1.421875 
Q 25.921875 -1.421875 19.796875 -0.4375 
Q 13.671875 0.53125 6.984375 2.484375 
L 6.984375 18.5 
L 12.890625 18.5 
Q 13.421875 11.578125 17.234375 7.9375 
Q 21.046875 4.296875 27.78125 4.296875 
Q 35.203125 4.296875 39.25 8.421875 
Q 43.3125 12.546875 43.3125 20.125 
Q 43.3125 28.03125 39.078125 32.328125 
Q 34.859375 36.625 27.09375 36.625 
L 23.875 36.625 
L 23.875 42.484375 
L 26.421875 42.484375 
Q 33.59375 42.484375 37.203125 45.796875 
Q 40.828125 49.125 40.828125 55.71875 
Q 40.828125 61.921875 37.421875 65.203125 
Q 34.03125 68.5 27.6875 68.5 
Q 21.921875 68.5 18.546875 65.34375 
Q 15.1875 62.203125 14.5 56.203125 
L 8.59375 56.203125 
z
" id="DejaVuSerif-Bold-51"/>
    </defs>
    <use id='use_29' xlink:href="#DejaVuSerif-Bold-51"/>
    <use id='use_30' x="69.580078" xlink:href="#DejaVuSerif-Bold-50"/>
   </g>
  </g>
  <g id="text_8">
   <!-- 994 -->
   <g id='g_31' style='cursor:move' transform="translate(440.456726 390.917219)scale(0.1 -0.1)">
    <use id='use_32' xlink:href="#DejaVuSerif-Bold-57"/>
    <use id='use_33' x="69.580078" xlink:href="#DejaVuSerif-Bold-57"/>
    <use id='use_34' x="139.160156" xlink:href="#DejaVuSerif-Bold-52"/>
   </g>
  </g>
  <g id="text_9">
   <!-- free-living -->
   <g id='g_35' style='cursor:move' transform="translate(412.606847 288.324403)scale(0.1 -0.1)">
    <defs>
     <path d="M 48.390625 62.984375 
L 42.921875 62.984375 
Q 42.53125 66.796875 40.703125 68.65625 
Q 38.875 70.515625 35.5 70.515625 
Q 31.59375 70.515625 29.828125 67.703125 
Q 28.078125 64.890625 28.078125 58.59375 
L 28.078125 51.90625 
L 41.109375 51.90625 
L 41.109375 46 
L 28.078125 46 
L 28.078125 5.90625 
L 38.09375 5.90625 
L 38.09375 0 
L 3.421875 0 
L 3.421875 5.90625 
L 10.796875 5.90625 
L 10.796875 46 
L 3.078125 46 
L 3.078125 51.90625 
L 10.796875 51.90625 
L 10.796875 58.40625 
Q 10.796875 67.046875 16.3125 71.515625 
Q 21.828125 75.984375 32.515625 75.984375 
Q 36.671875 75.984375 40.625 75.515625 
Q 44.578125 75.046875 48.390625 74.125 
z
" id="DejaVuSerif-Bold-102"/>
     <path d="M 53.71875 52.484375 
L 53.71875 37.015625 
L 48.1875 37.015625 
Q 47.90625 41.15625 45.953125 43.1875 
Q 44 45.21875 40.28125 45.21875 
Q 34.625 45.21875 31.34375 40.234375 
Q 28.078125 35.25 28.078125 26.421875 
L 28.078125 5.90625 
L 37.5 5.90625 
L 37.5 0 
L 3.421875 0 
L 3.421875 5.90625 
L 10.796875 5.90625 
L 10.796875 46 
L 2.875 46 
L 2.875 51.90625 
L 28.078125 51.90625 
L 28.078125 42.671875 
Q 30.609375 48.09375 34.78125 50.703125 
Q 38.96875 53.328125 45.015625 53.328125 
Q 46.53125 53.328125 48.703125 53.09375 
Q 50.875 52.875 53.71875 52.484375 
z
" id="DejaVuSerif-Bold-114"/>
     <path d="M 5.421875 33.40625 
L 36.078125 33.40625 
L 36.078125 20.21875 
L 5.421875 20.21875 
z
" id="DejaVuSerif-Bold-45"/>
     <path d="M 28.078125 5.90625 
L 35.5 5.90625 
L 35.5 0 
L 3.421875 0 
L 3.421875 5.90625 
L 10.796875 5.90625 
L 10.796875 70.125 
L 3.421875 70.125 
L 3.421875 75.984375 
L 28.078125 75.984375 
z
" id="DejaVuSerif-Bold-108"/>
     <path d="M 22.3125 0 
L 3.90625 46 
L -1.8125 46 
L -1.8125 51.90625 
L 27.984375 51.90625 
L 27.984375 46 
L 21.6875 46 
L 34.8125 13.1875 
L 47.90625 46 
L 41.109375 46 
L 41.109375 51.90625 
L 60.59375 51.90625 
L 60.59375 46 
L 54.59375 46 
L 36.1875 0 
z
" id="DejaVuSerif-Bold-118"/>
     <path d="M 60.203125 46 
L 60.203125 0.6875 
Q 60.203125 -10.25 52.40625 -16.234375 
Q 44.625 -22.21875 30.421875 -22.21875 
Q 25.25 -22.21875 19.921875 -21.40625 
Q 14.59375 -20.609375 8.984375 -19 
L 8.984375 -6.59375 
L 14.5 -6.59375 
Q 15.234375 -11.71875 18.625 -14.203125 
Q 22.015625 -16.703125 28.328125 -16.703125 
Q 36.328125 -16.703125 39.625 -12.859375 
Q 42.921875 -9.03125 42.921875 0.6875 
L 42.921875 6.59375 
Q 40.71875 2.546875 36.984375 0.5625 
Q 33.25 -1.421875 27.78125 -1.421875 
Q 16.75 -1.421875 10.421875 5.90625 
Q 4.109375 13.234375 4.109375 25.984375 
Q 4.109375 38.765625 10.421875 46.046875 
Q 16.75 53.328125 27.78125 53.328125 
Q 33.25 53.328125 36.984375 51.34375 
Q 40.71875 49.359375 42.921875 45.3125 
L 42.921875 51.90625 
L 67.578125 51.90625 
L 67.578125 46 
z
M 42.921875 28.515625 
Q 42.921875 37.59375 40.578125 41.640625 
Q 38.234375 45.703125 33.109375 45.703125 
Q 27.734375 45.703125 25.5625 41.421875 
Q 23.390625 37.15625 23.390625 25.984375 
Q 23.390625 14.796875 25.578125 10.5 
Q 27.78125 6.203125 33.109375 6.203125 
Q 38.234375 6.203125 40.578125 10.25 
Q 42.921875 14.3125 42.921875 23.390625 
z
" id="DejaVuSerif-Bold-103"/>
    </defs>
    <use id='use_36' xlink:href="#DejaVuSerif-Bold-102"/>
    <use id='use_37' x="43.017578" xlink:href="#DejaVuSerif-Bold-114"/>
    <use id='use_38' x="95.703125" xlink:href="#DejaVuSerif-Bold-101"/>
    <use id='use_39' x="159.326172" xlink:href="#DejaVuSerif-Bold-101"/>
    <use id='use_40' x="222.949219" xlink:href="#DejaVuSerif-Bold-45"/>
    <use id='use_41' x="264.453125" xlink:href="#DejaVuSerif-Bold-108"/>
    <use id='use_42' x="302.441406" xlink:href="#DejaVuSerif-Bold-105"/>
    <use id='use_43' x="340.429688" xlink:href="#DejaVuSerif-Bold-118"/>
    <use id='use_44' x="398.535156" xlink:href="#DejaVuSerif-Bold-105"/>
    <use id='use_45' x="436.523438" xlink:href="#DejaVuSerif-Bold-110"/>
    <use id='use_46' x="509.228516" xlink:href="#DejaVuSerif-Bold-103"/>
   </g>
  </g>
  <g id="text_10">
   <!-- Clade II -->
   <g id='g_47' style='cursor:move' transform="translate(299.006658 389.656547)scale(0.1 -0.1)">
    <defs>
     <path d="M 74.515625 20.796875 
Q 71.625 9.515625 64.15625 4.046875 
Q 56.6875 -1.421875 44.09375 -1.421875 
Q 25.640625 -1.421875 14.921875 8.765625 
Q 4.203125 18.953125 4.203125 36.375 
Q 4.203125 53.859375 14.921875 64.03125 
Q 25.640625 74.21875 44.09375 74.21875 
Q 50.59375 74.21875 57.625 72.65625 
Q 64.65625 71.09375 72.515625 67.921875 
L 72.515625 50 
L 66.3125 50 
Q 64.40625 59.1875 59.375 63.75 
Q 54.34375 68.3125 46.09375 68.3125 
Q 35.453125 68.3125 30.265625 60.46875 
Q 25.09375 52.640625 25.09375 36.375 
Q 25.09375 20.125 30.265625 12.3125 
Q 35.453125 4.5 46.1875 4.5 
Q 53.46875 4.5 58.078125 8.546875 
Q 62.703125 12.59375 64.796875 20.796875 
z
" id="DejaVuSerif-Bold-67"/>
     <path d="M 55.078125 31.890625 
L 55.078125 5.90625 
L 62.5 5.90625 
L 62.5 0 
L 37.796875 0 
L 37.796875 6.59375 
Q 34.375 2.484375 30.171875 0.53125 
Q 25.984375 -1.421875 20.609375 -1.421875 
Q 12.640625 -1.421875 8.375 2.84375 
Q 4.109375 7.125 4.109375 15.09375 
Q 4.109375 23.828125 10.234375 28.171875 
Q 16.359375 32.515625 28.71875 32.515625 
L 37.796875 32.515625 
L 37.796875 35.59375 
Q 37.796875 41.890625 34.8125 44.890625 
Q 31.84375 47.90625 25.59375 47.90625 
Q 20.40625 47.90625 17.59375 45.78125 
Q 14.796875 43.65625 13.625 38.8125 
L 8.109375 38.8125 
L 8.109375 50 
Q 12.75 51.65625 17.71875 52.484375 
Q 22.703125 53.328125 28.21875 53.328125 
Q 42.140625 53.328125 48.609375 48.140625 
Q 55.078125 42.96875 55.078125 31.890625 
z
M 37.796875 16.3125 
L 37.796875 26.703125 
L 31.296875 26.703125 
Q 26.46875 26.703125 23.875 24.0625 
Q 21.296875 21.4375 21.296875 16.5 
Q 21.296875 11.578125 23.171875 9.125 
Q 25.046875 6.6875 28.90625 6.6875 
Q 32.90625 6.6875 35.34375 9.328125 
Q 37.796875 11.96875 37.796875 16.3125 
z
" id="DejaVuSerif-Bold-97"/>
     <path d="M 42.921875 23.390625 
L 42.921875 28.515625 
Q 42.921875 37.59375 40.578125 41.640625 
Q 38.234375 45.703125 33.109375 45.703125 
Q 27.734375 45.703125 25.5625 41.421875 
Q 23.390625 37.15625 23.390625 25.984375 
Q 23.390625 14.796875 25.578125 10.5 
Q 27.78125 6.203125 33.109375 6.203125 
Q 38.234375 6.203125 40.578125 10.25 
Q 42.921875 14.3125 42.921875 23.390625 
z
M 60.203125 5.90625 
L 67.578125 5.90625 
L 67.578125 0 
L 42.921875 0 
L 42.921875 6.59375 
Q 40.71875 2.546875 36.984375 0.5625 
Q 33.25 -1.421875 27.78125 -1.421875 
Q 16.75 -1.421875 10.421875 5.90625 
Q 4.109375 13.234375 4.109375 25.984375 
Q 4.109375 38.765625 10.421875 46.046875 
Q 16.75 53.328125 27.78125 53.328125 
Q 33.25 53.328125 36.984375 51.34375 
Q 40.71875 49.359375 42.921875 45.3125 
L 42.921875 70.125 
L 35.5 70.125 
L 35.5 75.984375 
L 60.203125 75.984375 
z
" id="DejaVuSerif-Bold-100"/>
     <path id="DejaVuSerif-Bold-32"/>
     <path d="M 4.6875 0 
L 4.6875 5.90625 
L 14.015625 5.90625 
L 14.015625 67 
L 4.6875 67 
L 4.6875 72.90625 
L 42.1875 72.90625 
L 42.1875 67 
L 32.8125 67 
L 32.8125 5.90625 
L 42.1875 5.90625 
L 42.1875 0 
z
" id="DejaVuSerif-Bold-73"/>
    </defs>
    <use id='use_48' xlink:href="#DejaVuSerif-Bold-67"/>
    <use id='use_49' x="79.589844" xlink:href="#DejaVuSerif-Bold-108"/>
    <use id='use_50' x="117.578125" xlink:href="#DejaVuSerif-Bold-97"/>
    <use id='use_51' x="182.373047" xlink:href="#DejaVuSerif-Bold-100"/>
    <use id='use_52' x="252.294922" xlink:href="#DejaVuSerif-Bold-101"/>
    <use id='use_53' x="315.917969" xlink:href="#DejaVuSerif-Bold-32"/>
    <use id='use_54' x="350.732422" xlink:href="#DejaVuSerif-Bold-73"/>
    <use id='use_55' x="397.509766" xlink:href="#DejaVuSerif-Bold-73"/>
   </g>
  </g>
  <g id="text_11">
   <!-- Clade I -->
   <g id='g_56' style='cursor:move' transform="translate(422.65172 389.656547)scale(0.1 -0.1)">
    <use id='use_57' xlink:href="#DejaVuSerif-Bold-67"/>
    <use id='use_58' x="79.589844" xlink:href="#DejaVuSerif-Bold-108"/>
    <use id='use_59' x="117.578125" xlink:href="#DejaVuSerif-Bold-97"/>
    <use id='use_60' x="182.373047" xlink:href="#DejaVuSerif-Bold-100"/>
    <use id='use_61' x="252.294922" xlink:href="#DejaVuSerif-Bold-101"/>
    <use id='use_62' x="315.917969" xlink:href="#DejaVuSerif-Bold-32"/>
    <use id='use_63' x="350.732422" xlink:href="#DejaVuSerif-Bold-73"/>
   </g>
  </g>
 </g>
 <defs>
  <clipPath id="p855647fb9b">
   <rect height="543.6" width="543.6" x="97.2" y="86.4"/>
  </clipPath>
 </defs>
</svg>
